<?xml version="1.0" encoding="utf-8"?>
<!-- Generator: Adobe Illustrator 24.2.3, SVG Export Plug-In . SVG Version: 6.00 Build 0)  -->
<svg version="1.1" id="Camada_1" xmlns="http://www.w3.org/2000/svg" xmlns:xlink="http://www.w3.org/1999/xlink" x="0px" y="0px"
	 viewBox="0 0 308.78 82.73" style="enable-background:new 0 0 308.78 82.73;" xml:space="preserve">
<style type="text/css">
	.st0{fill:#FFFFFF;}
</style>
<g>
	<g>
		<g>
			<path class="st0" d="M14.3,46.8c-2.58,0-4.66-0.78-6.24-2.35c-1.58-1.57-2.38-3.66-2.38-6.27V26.68c0-2.62,0.79-4.71,2.38-6.27
				c1.58-1.57,3.67-2.35,6.24-2.35h19.29c2.62,0,4.72,0.78,6.3,2.35c1.58,1.57,2.38,3.66,2.38,6.27v30.67
				c0,0.81-0.41,1.22-1.22,1.22h-3.04c-0.81,0-1.22-0.41-1.22-1.22V43.76c-0.66,0.96-1.55,1.7-2.65,2.24
				c-1.11,0.53-2.49,0.8-4.14,0.8H14.3z M36.79,27.56c0-1.47-0.41-2.63-1.24-3.48c-0.83-0.85-1.98-1.27-3.45-1.27H15.85
				c-1.47,0-2.63,0.42-3.48,1.27c-0.85,0.85-1.27,2.01-1.27,3.48v9.73c0,1.47,0.42,2.63,1.27,3.48c0.85,0.85,2.01,1.27,3.48,1.27
				H32.1c1.47,0,2.62-0.42,3.45-1.27c0.83-0.85,1.24-2.01,1.24-3.48V27.56z"/>
			<path class="st0" d="M55.72,40.77c0.83,0.85,1.98,1.27,3.45,1.27h15.42c1.47,0,2.63-0.42,3.45-1.27
				c0.83-0.85,1.24-2.01,1.24-3.48V19.28c0-0.81,0.41-1.22,1.22-1.22h3.04c0.81,0,1.22,0.41,1.22,1.22v18.9
				c0,2.62-0.79,4.71-2.38,6.27c-1.58,1.57-3.68,2.35-6.3,2.35H57.63c-2.58,0-4.66-0.78-6.24-2.35c-1.58-1.57-2.38-3.66-2.38-6.27
				v-18.9c0-0.81,0.41-1.22,1.22-1.22h3.04c0.81,0,1.22,0.41,1.22,1.22v18.02C54.48,38.77,54.89,39.93,55.72,40.77z"/>
			<path class="st0" d="M96.98,38.67c0,1.18,0.24,2.04,0.72,2.57c0.48,0.53,1.31,0.8,2.49,0.8h0.66c0.81,0,1.22,0.39,1.22,1.16v2.38
				c0,0.81-0.41,1.22-1.22,1.22h-1.82c-5.01,0-7.52-2.52-7.52-7.57V19.28c0-0.81,0.41-1.22,1.22-1.22h3.04
				c0.81,0,1.22,0.41,1.22,1.22V38.67z"/>
			<path class="st0" d="M131.07,18.06c1.62,0,2.99,0.28,4.12,0.83c1.12,0.55,2.02,1.31,2.68,2.27V7.23c0-0.81,0.39-1.22,1.16-1.22
				h3.04c0.81,0,1.22,0.41,1.22,1.22v30.95c0,2.62-0.79,4.71-2.38,6.27c-1.58,1.57-3.67,2.35-6.24,2.35h-19.29
				c-2.58,0-4.66-0.78-6.24-2.35c-1.58-1.57-2.38-3.66-2.38-6.27V26.68c0-2.62,0.79-4.71,2.38-6.27c1.58-1.57,3.67-2.35,6.24-2.35
				H131.07z M137.87,27.56c0-1.47-0.42-2.63-1.27-3.48c-0.85-0.85-2.01-1.27-3.48-1.27h-16.19c-1.47,0-2.63,0.42-3.48,1.27
				c-0.85,0.85-1.27,2.01-1.27,3.48v9.73c0,1.47,0.42,2.63,1.27,3.48c0.85,0.85,2.01,1.27,3.48,1.27h16.19
				c1.47,0,2.63-0.42,3.48-1.27c0.85-0.85,1.27-2.01,1.27-3.48V27.56z"/>
			<path class="st0" d="M155.5,38.67c0,1.18,0.24,2.04,0.72,2.57c0.48,0.53,1.31,0.8,2.49,0.8h0.66c0.81,0,1.21,0.39,1.21,1.16v2.38
				c0,0.81-0.41,1.22-1.21,1.22h-1.82c-5.01,0-7.52-2.52-7.52-7.57V19.28c0-0.81,0.41-1.22,1.22-1.22h3.04
				c0.81,0,1.22,0.41,1.22,1.22V38.67z"/>
			<path class="st0" d="M189.98,43.2v2.38c0,0.81-0.41,1.22-1.21,1.22h-12.71c-2.58,0-4.66-0.78-6.24-2.35
				c-1.58-1.57-2.38-3.66-2.38-6.27V22.81h-3.87c-0.81,0-1.21-0.39-1.21-1.16v-2.38c0-0.81,0.4-1.22,1.21-1.22h3.87v-5.69
				c0-0.81,0.4-1.22,1.21-1.22h2.99c0.81,0,1.21,0.41,1.21,1.22v5.69h15.75c0.81,0,1.21,0.41,1.21,1.22v2.38
				c0,0.77-0.41,1.16-1.21,1.16h-15.75v14.48c0,1.47,0.42,2.63,1.27,3.48c0.85,0.85,2.01,1.27,3.48,1.27h11.16
				C189.57,42.04,189.98,42.43,189.98,43.2z"/>
			<path class="st0" d="M221.43,43.2v2.38c0,0.81-0.41,1.22-1.21,1.22H207.5c-2.58,0-4.66-0.78-6.24-2.35
				c-1.58-1.57-2.38-3.66-2.38-6.27V22.81h-3.87c-0.81,0-1.21-0.39-1.21-1.16v-2.38c0-0.81,0.4-1.22,1.21-1.22h3.87v-5.69
				c0-0.81,0.4-1.22,1.21-1.22h2.99c0.81,0,1.21,0.41,1.21,1.22v5.69h15.75c0.81,0,1.21,0.41,1.21,1.22v2.38
				c0,0.77-0.41,1.16-1.21,1.16h-15.75v14.48c0,1.47,0.42,2.63,1.27,3.48c0.85,0.85,2.01,1.27,3.48,1.27h11.16
				C221.02,42.04,221.43,42.43,221.43,43.2z"/>
			<path class="st0" d="M256.63,30.05v-2.49c0-1.47-0.42-2.63-1.27-3.48c-0.85-0.85-2.01-1.27-3.48-1.27h-23.49
				c-0.77,0-1.16-0.39-1.16-1.16v-2.38c0-0.81,0.39-1.22,1.16-1.22h25.03c2.58,0,4.66,0.78,6.25,2.35c1.58,1.57,2.38,3.66,2.38,6.27
				v12.05c0,2.62-0.7,4.61-2.1,6c-1.4,1.38-3.39,2.07-5.97,2.07h-20.5c-5.01,0-7.51-2.52-7.51-7.57v-1.6c0-5.05,2.5-7.57,7.51-7.57
				H256.63z M252.7,42.04c2.62,0,3.92-1.31,3.92-3.92V34.8H234.8c-1.25,0-2.14,0.28-2.65,0.83c-0.52,0.55-0.77,1.42-0.77,2.6v0.39
				c0,1.18,0.26,2.04,0.77,2.6c0.52,0.55,1.4,0.83,2.65,0.83H252.7z"/>
			<path class="st0" d="M269.17,46.8c-0.81,0-1.21-0.41-1.21-1.22V43.2c0-0.77,0.4-1.16,1.21-1.16h25.09c1.25,0,2.14-0.28,2.65-0.83
				c0.52-0.55,0.77-1.42,0.77-2.6v-0.39c0-1.18-0.26-2.04-0.77-2.6c-0.52-0.55-1.4-0.83-2.65-0.83h-19.34
				c-5.01,0-7.51-2.52-7.51-7.57v-1.6c0-5.05,2.5-7.57,7.51-7.57h25.86c0.81,0,1.22,0.41,1.22,1.22v2.38c0,0.77-0.41,1.16-1.22,1.16
				h-24.54c-1.25,0-2.14,0.28-2.65,0.83c-0.52,0.55-0.77,1.42-0.77,2.6v0.39c0,1.18,0.26,2.04,0.77,2.6
				c0.52,0.55,1.4,0.83,2.65,0.83h19.29c5.05,0,7.57,2.52,7.57,7.57v1.6c0,5.05-2.52,7.57-7.57,7.57H269.17z"/>
		</g>
		<g>
			<path class="st0" d="M71.41,70.18c-0.73,0.73-1.69,1.09-2.91,1.09h-4.43c-0.82,0-1.51-0.17-2.06-0.5
				c-0.56-0.33-0.98-0.8-1.27-1.4c-0.29,0.6-0.71,1.06-1.27,1.4c-0.56,0.33-1.24,0.5-2.06,0.5h-4.3c-1.2,0-2.16-0.36-2.89-1.09
				c-0.73-0.73-1.1-1.69-1.1-2.91v-8.76c0-0.38,0.19-0.56,0.56-0.56h1.41c0.38,0,0.56,0.19,0.56,0.56v8.35
				c0,0.68,0.19,1.22,0.58,1.61c0.38,0.39,0.92,0.59,1.6,0.59h3.46c0.68,0,1.22-0.2,1.61-0.59c0.39-0.39,0.59-0.93,0.59-1.61v-8.35
				c0-0.38,0.18-0.56,0.54-0.56h1.41c0.38,0,0.56,0.19,0.56,0.56v8.35c0,0.68,0.2,1.22,0.59,1.61c0.39,0.39,0.93,0.59,1.61,0.59
				h3.59c0.68,0,1.22-0.2,1.61-0.59c0.39-0.39,0.59-0.93,0.59-1.61v-8.35c0-0.38,0.19-0.56,0.56-0.56h1.41
				c0.36,0,0.54,0.19,0.54,0.56v8.76C72.49,68.48,72.13,69.45,71.41,70.18z"/>
			<path class="st0" d="M88.78,57.95c2.32,0,3.48,1.17,3.48,3.51v0.74c0,2.34-1.16,3.51-3.48,3.51H78.05v1.15
				c0,0.68,0.2,1.22,0.59,1.61c0.39,0.39,0.93,0.59,1.61,0.59h10.94c0.38,0,0.56,0.18,0.56,0.54v1.1c0,0.38-0.19,0.56-0.56,0.56
				H79.54c-1.2,0-2.16-0.36-2.89-1.09c-0.73-0.73-1.1-1.69-1.1-2.91v-5.33c0-1.21,0.37-2.18,1.1-2.91c0.73-0.73,1.7-1.09,2.89-1.09
				H88.78z M78.05,63.51h10.12c0.58,0,0.99-0.13,1.23-0.38c0.24-0.26,0.36-0.66,0.36-1.2v-0.18c0-0.55-0.12-0.95-0.36-1.2
				c-0.24-0.26-0.65-0.38-1.23-0.38h-7.91c-0.68,0-1.22,0.2-1.61,0.59c-0.39,0.39-0.59,0.93-0.59,1.61V63.51z"/>
			<path class="st0" d="M107.79,57.95c1.21,0,2.18,0.36,2.91,1.09c0.73,0.73,1.09,1.69,1.09,2.91v5.33c0,1.21-0.36,2.18-1.09,2.91
				c-0.73,0.73-1.69,1.09-2.91,1.09h-8.94c-1.2,0-2.16-0.36-2.89-1.09c-0.73-0.73-1.1-1.69-1.1-2.91V52.93
				c0-0.38,0.19-0.56,0.56-0.56h1.41c0.38,0,0.56,0.19,0.56,0.56v6.4c0.31-0.44,0.72-0.78,1.23-1.02c0.51-0.24,1.15-0.36,1.92-0.36
				H107.79z M97.39,66.86c0,0.68,0.19,1.22,0.58,1.61c0.38,0.39,0.92,0.59,1.6,0.59h7.5c0.7,0,1.24-0.2,1.63-0.59
				c0.38-0.39,0.58-0.93,0.58-1.61v-4.51c0-0.68-0.19-1.22-0.58-1.61c-0.38-0.39-0.93-0.59-1.63-0.59h-7.5
				c-0.68,0-1.22,0.2-1.6,0.59c-0.38,0.39-0.58,0.93-0.58,1.61V66.86z"/>
			<path class="st0" d="M123.54,71.27c-0.38,0-0.56-0.19-0.56-0.56v-1.1c0-0.36,0.19-0.54,0.56-0.54h11.63
				c0.58,0,0.99-0.13,1.23-0.38c0.24-0.26,0.36-0.66,0.36-1.2V67.3c0-0.55-0.12-0.95-0.36-1.2c-0.24-0.26-0.65-0.38-1.23-0.38h-8.96
				c-2.32,0-3.48-1.17-3.48-3.51v-0.74c0-2.34,1.16-3.51,3.48-3.51h11.99c0.38,0,0.56,0.19,0.56,0.56v1.1
				c0,0.36-0.19,0.54-0.56,0.54h-11.37c-0.58,0-0.99,0.13-1.23,0.38c-0.24,0.26-0.36,0.66-0.36,1.2v0.18c0,0.55,0.12,0.95,0.36,1.2
				c0.24,0.26,0.65,0.38,1.23,0.38h8.94c2.34,0,3.51,1.17,3.51,3.51v0.74c0,2.34-1.17,3.51-3.51,3.51H123.54z"/>
			<path class="st0" d="M145.75,71.27c-1.2,0-2.16-0.36-2.89-1.09c-0.73-0.73-1.1-1.69-1.1-2.91v-5.33c0-1.21,0.37-2.18,1.1-2.91
				c0.73-0.73,1.7-1.09,2.89-1.09h8.94c1.2,0,2.16,0.36,2.9,1.09c0.73,0.73,1.1,1.69,1.1,2.91v5.33c0,1.21-0.37,2.18-1.1,2.91
				c-0.74,0.73-1.7,1.09-2.9,1.09H145.75z M146.47,60.15c-0.68,0-1.22,0.2-1.61,0.59c-0.39,0.39-0.59,0.93-0.59,1.61v4.51
				c0,0.68,0.2,1.22,0.59,1.61c0.39,0.39,0.93,0.59,1.61,0.59h7.5c0.68,0,1.22-0.2,1.61-0.59c0.39-0.39,0.59-0.93,0.59-1.61v-4.51
				c0-0.68-0.2-1.22-0.59-1.61c-0.39-0.39-0.93-0.59-1.61-0.59H146.47z"/>
			<path class="st0" d="M164.57,68.69c0.22,0.25,0.61,0.37,1.15,0.37h0.31c0.38,0,0.56,0.18,0.56,0.54v1.1
				c0,0.38-0.19,0.56-0.56,0.56h-0.84c-2.32,0-3.48-1.17-3.48-3.51V52.93c0-0.38,0.19-0.56,0.56-0.56h1.41
				c0.38,0,0.56,0.19,0.56,0.56V67.5C164.24,68.05,164.35,68.44,164.57,68.69z"/>
			<path class="st0" d="M171.99,68.47c0.38,0.39,0.92,0.59,1.6,0.59h7.15c0.68,0,1.22-0.2,1.6-0.59c0.38-0.39,0.57-0.93,0.57-1.61
				v-8.35c0-0.38,0.19-0.56,0.56-0.56h1.41c0.38,0,0.56,0.19,0.56,0.56v8.76c0,1.21-0.37,2.18-1.1,2.91s-1.71,1.09-2.92,1.09h-8.56
				c-1.2,0-2.16-0.36-2.9-1.09c-0.73-0.73-1.1-1.69-1.1-2.91v-8.76c0-0.38,0.19-0.56,0.56-0.56h1.41c0.38,0,0.56,0.19,0.56,0.56
				v8.35C171.41,67.54,171.6,68.08,171.99,68.47z"/>
			<path class="st0" d="M203.86,69.06c0.36,0,0.54,0.18,0.54,0.54v1.1c0,0.38-0.18,0.56-0.54,0.56h-11.4c-1.2,0-2.16-0.36-2.9-1.09
				c-0.73-0.73-1.1-1.69-1.1-2.91v-5.33c0-1.21,0.37-2.18,1.1-2.91c0.74-0.73,1.7-1.09,2.9-1.09h11.4c0.36,0,0.54,0.19,0.54,0.56
				v1.1c0,0.36-0.18,0.54-0.54,0.54h-10.68c-0.68,0-1.22,0.2-1.61,0.59c-0.39,0.39-0.59,0.93-0.59,1.61v4.51
				c0,0.68,0.2,1.22,0.59,1.61c0.39,0.39,0.93,0.59,1.61,0.59H203.86z M196.38,76.34c-0.1,0.15-0.2,0.26-0.31,0.31
				c-0.1,0.05-0.25,0.08-0.44,0.08h-1.46c-0.15,0-0.26-0.06-0.32-0.19c-0.06-0.13-0.05-0.24,0.04-0.35l2.23-3.28
				c0.09-0.14,0.18-0.24,0.28-0.3c0.1-0.06,0.25-0.09,0.44-0.09h1.82c0.19,0,0.3,0.06,0.33,0.18c0.03,0.12,0.01,0.23-0.08,0.33
				L196.38,76.34z"/>
			<path class="st0" d="M210.93,71.27c-1.2,0-2.16-0.36-2.9-1.09c-0.73-0.73-1.1-1.69-1.1-2.91v-5.33c0-1.21,0.37-2.18,1.1-2.91
				c0.74-0.73,1.7-1.09,2.9-1.09h8.94c1.19,0,2.16,0.36,2.89,1.09c0.74,0.73,1.1,1.69,1.1,2.91v5.33c0,1.21-0.37,2.18-1.1,2.91
				c-0.73,0.73-1.7,1.09-2.89,1.09H210.93z M211.65,60.15c-0.68,0-1.22,0.2-1.61,0.59c-0.39,0.39-0.59,0.93-0.59,1.61v4.51
				c0,0.68,0.2,1.22,0.59,1.61c0.39,0.39,0.93,0.59,1.61,0.59h7.5c0.68,0,1.22-0.2,1.61-0.59c0.39-0.39,0.59-0.93,0.59-1.61v-4.51
				c0-0.68-0.2-1.22-0.59-1.61c-0.39-0.39-0.93-0.59-1.61-0.59H211.65z M217.26,54.08c0.46,0,0.82-0.11,1.09-0.33
				c0.26-0.22,0.54-0.56,0.83-1.02c0.09-0.12,0.2-0.17,0.35-0.14c0.15,0.03,0.22,0.12,0.22,0.29v1.31c0,0.32-0.09,0.61-0.28,0.85
				c-0.26,0.34-0.56,0.61-0.91,0.81c-0.35,0.2-0.77,0.3-1.27,0.3c-0.48,0-0.88-0.07-1.2-0.22c-0.33-0.15-0.62-0.3-0.88-0.47
				c-0.27-0.17-0.53-0.33-0.79-0.47c-0.26-0.15-0.57-0.22-0.91-0.22c-0.46,0-0.82,0.12-1.09,0.35c-0.26,0.23-0.54,0.58-0.83,1.04
				c-0.09,0.12-0.2,0.17-0.34,0.14c-0.15-0.03-0.22-0.13-0.22-0.32v-1.31c0-0.29,0.09-0.57,0.28-0.85c0.26-0.34,0.56-0.61,0.91-0.81
				c0.35-0.2,0.77-0.29,1.27-0.29c0.48,0,0.88,0.07,1.2,0.22c0.32,0.15,0.62,0.3,0.88,0.47c0.26,0.17,0.53,0.33,0.79,0.47
				C216.61,54.01,216.92,54.08,217.26,54.08z"/>
			<path class="st0" d="M240.03,57.95c2.32,0,3.48,1.17,3.48,3.51v0.74c0,2.34-1.16,3.51-3.48,3.51H229.3v1.15
				c0,0.68,0.2,1.22,0.59,1.61c0.39,0.39,0.93,0.59,1.61,0.59h10.94c0.38,0,0.56,0.18,0.56,0.54v1.1c0,0.38-0.19,0.56-0.56,0.56
				h-11.65c-1.2,0-2.16-0.36-2.9-1.09c-0.73-0.73-1.1-1.69-1.1-2.91v-5.33c0-1.21,0.37-2.18,1.1-2.91c0.74-0.73,1.7-1.09,2.9-1.09
				H240.03z M229.3,63.51h10.12c0.58,0,0.99-0.13,1.23-0.38c0.24-0.26,0.36-0.66,0.36-1.2v-0.18c0-0.55-0.12-0.95-0.36-1.2
				c-0.24-0.26-0.65-0.38-1.23-0.38h-7.92c-0.68,0-1.22,0.2-1.61,0.59c-0.39,0.39-0.59,0.93-0.59,1.61V63.51z"/>
			<path class="st0" d="M246.38,71.27c-0.38,0-0.56-0.19-0.56-0.56v-1.1c0-0.36,0.19-0.54,0.56-0.54h11.63
				c0.58,0,0.99-0.13,1.23-0.38c0.24-0.26,0.36-0.66,0.36-1.2V67.3c0-0.55-0.12-0.95-0.36-1.2c-0.24-0.26-0.65-0.38-1.23-0.38h-8.96
				c-2.32,0-3.48-1.17-3.48-3.51v-0.74c0-2.34,1.16-3.51,3.48-3.51h11.99c0.38,0,0.56,0.19,0.56,0.56v1.1
				c0,0.36-0.19,0.54-0.56,0.54h-11.37c-0.58,0-0.99,0.13-1.23,0.38c-0.24,0.26-0.36,0.66-0.36,1.2v0.18c0,0.55,0.12,0.95,0.36,1.2
				c0.24,0.26,0.65,0.38,1.23,0.38h8.94c2.34,0,3.51,1.17,3.51,3.51v0.74c0,2.34-1.17,3.51-3.51,3.51H246.38z"/>
		</g>
		<circle class="st0" cx="94.24" cy="9.38" r="3.15"/>
		<circle class="st0" cx="152.76" cy="9.38" r="3.15"/>
	</g>
</g>
</svg>
