<?xml version="1.0" encoding="utf-8"?>
<!-- Generator: Adobe Illustrator 24.2.3, SVG Export Plug-In . SVG Version: 6.00 Build 0)  -->
<svg version="1.1" id="Camada_1" xmlns="http://www.w3.org/2000/svg" xmlns:xlink="http://www.w3.org/1999/xlink" x="0px" y="0px"
	 viewBox="0 0 173.21 162.29" style="enable-background:new 0 0 173.21 162.29;" xml:space="preserve">
<style type="text/css">
	.st0{fill:#FFFFFF;}
</style>
<g>
	<g>
		<g>
			<g>
				<path class="st0" d="M33.39,105.55v-48.8c0-13.17,10.67-23.84,23.84-23.84h60.37c13.17,0,23.84,10.67,23.84,23.84v24.04
					l27.22-24.71c0-28.61-23.2-51.81-51.81-51.81h-60.5c-28.61,0-51.81,23.2-51.81,51.81v50.15c0,28.61,23.2,51.81,51.81,51.81
					l31.55-28.64H57.24C44.07,129.39,33.39,118.72,33.39,105.55z"/>
				<path class="st0" d="M87.9,129.39h29.7c13.17,0,23.84-10.67,23.84-23.84V80.78L87.9,129.39z"/>
			</g>
			<circle class="st0" cx="86.61" cy="81.15" r="10.1"/>
		</g>
	</g>
</g>
</svg>
